<svg xmlns="http://www.w3.org/2000/svg" viewBox="0 0 64 64" width="64" height="64" aria-hidden="true">
  <defs>
    <linearGradient id="sun" x1="0" x2="1" y1="0" y2="1">
      <stop offset="0%" stop-color="#f7d154" />
      <stop offset="100%" stop-color="#f2a93b" />
    </linearGradient>
  </defs>
  <circle cx="24" cy="24" r="12" fill="url(#sun)" />
  <g fill="none" stroke="#f2a93b" stroke-width="3" stroke-linecap="round">
    <path d="M24 6v6" />
    <path d="M24 36v6" />
    <path d="M6 24h6" />
    <path d="M36 24h6" />
    <path d="M11 11l4 4" />
    <path d="M33 33l4 4" />
    <path d="M11 37l4-4" />
    <path d="M33 15l4-4" />
  </g>
  <path
    d="M30 46c0-5.5 4.5-10 10-10 4.6 0 8.5 3.1 9.6 7.4 4.1.4 7.4 3.9 7.4 8.1 0 4.4-3.6 8-8 8H34c-4.4 0-8-3.6-8-8 0-2.2.9-4.2 2.4-5.7z"
    fill="#dbe4f3"
  />
</svg>
